HIERARCHY
ROOT Hips
{
	OFFSET 0.000000 71.427986 0.000000
	CHANNELS 6 Xposition Yposition Zposition Xrotation Yrotation Zrotation
	JOINT Pelvis
	{
		OFFSET 0.000000 0.000000 0.000000
		CHANNELS 3 Xrotation Yrotation Zrotation
		JOINT LeftUpLeg
		{
			OFFSET 6.797100 -2.508499 -1.318700
			CHANNELS 3 Xrotation Yrotation Zrotation
			JOINT LeftLeg
			{
				OFFSET 0.069008 -29.241863 0.690200
				CHANNELS 3 Xrotation Yrotation Zrotation
				JOINT LeftFoot
				{
					OFFSET -0.069008 -29.568123 -0.266800
					CHANNELS 3 Xrotation Yrotation Zrotation
					JOINT LeftToeBase
					{
						OFFSET 3.145500 -8.631000 16.059900
						CHANNELS 3 Xrotation Yrotation Zrotation
						End Site
						{
							OFFSET 0.000000 18.501587 0.000000
						}
					}
				}
			}
			JOINT Left_ShortSleeve
			{
				OFFSET 0.265923 -10.480953 1.153800
				CHANNELS 3 Xrotation Yrotation Zrotation
				End Site
				{
					OFFSET 1.725763 19.823879 0.000000
				}
			}
		}
		JOINT RightUpLeg
		{
			OFFSET -6.797100 -2.508499 -1.318700
			CHANNELS 3 Xrotation Yrotation Zrotation
			JOINT RightLeg
			{
				OFFSET -0.082453 -29.241932 0.688000
				CHANNELS 3 Xrotation Yrotation Zrotation
				JOINT RightFoot
				{
					OFFSET 0.082453 -29.568058 -0.264600
					CHANNELS 3 Xrotation Yrotation Zrotation
					JOINT RightToeBase
					{
						OFFSET -3.115300 -8.682800 16.113400
						CHANNELS 3 Xrotation Yrotation Zrotation
						End Site
						{
							OFFSET 0.000000 18.567114 0.000000
						}
					}
				}
			}
			JOINT Right_ShortSleeve
			{
				OFFSET -0.265923 -10.480953 1.153800
				CHANNELS 3 Xrotation Yrotation Zrotation
				End Site
				{
					OFFSET -1.725766 19.823910 0.000000
				}
			}
		}
	}
	JOINT Spine
	{
		OFFSET 0.000000 13.368103 0.470500
		CHANNELS 3 Xrotation Yrotation Zrotation
		JOINT Spine1
		{
			OFFSET 0.147000 13.837402 0.538800
			CHANNELS 3 Xrotation Yrotation Zrotation
			JOINT Spine2
			{
				OFFSET 0.168000 16.242897 -1.435500
				CHANNELS 3 Xrotation Yrotation Zrotation
				JOINT Neck
				{
					OFFSET 0.217200 18.631500 -1.679100
					CHANNELS 3 Xrotation Yrotation Zrotation
					JOINT Head
					{
						OFFSET 0.000000 6.599396 1.385900
						CHANNELS 3 Xrotation Yrotation Zrotation
						JOINT Hat
						{
							OFFSET -0.532200 27.220596 -10.096100
							CHANNELS 3 Xrotation Yrotation Zrotation
							End Site
							{
								OFFSET 0.000000 22.029861 0.000000
							}
						}
						JOINT HairD
						{
							OFFSET -10.777400 17.437393 -1.325900
							CHANNELS 3 Xrotation Yrotation Zrotation
							JOINT HairD1
							{
								OFFSET -3.290299 -11.051193 1.062200
								CHANNELS 3 Xrotation Yrotation Zrotation
								End Site
								{
									OFFSET 0.000000 11.579437 0.000000
								}
							}
						}
						JOINT HairB
						{
							OFFSET -10.777400 17.437393 1.467900
							CHANNELS 3 Xrotation Yrotation Zrotation
							JOINT HairB1
							{
								OFFSET -1.561200 -12.956299 3.590200
								CHANNELS 3 Xrotation Yrotation Zrotation
								End Site
								{
									OFFSET 0.000000 13.534866 0.000000
								}
							}
						}
						JOINT HairA
						{
							OFFSET 9.713100 17.437393 1.467900
							CHANNELS 3 Xrotation Yrotation Zrotation
							JOINT HairA1
							{
								OFFSET 1.561200 -12.956299 3.590200
								CHANNELS 3 Xrotation Yrotation Zrotation
								End Site
								{
									OFFSET 0.000000 13.534866 0.000000
								}
							}
						}
						JOINT HairC
						{
							OFFSET 9.713100 17.437393 -1.325900
							CHANNELS 3 Xrotation Yrotation Zrotation
							JOINT HairC1
							{
								OFFSET 3.290300 -11.051193 1.062200
								CHANNELS 3 Xrotation Yrotation Zrotation
								End Site
								{
									OFFSET 0.000000 11.579437 0.000000
								}
							}
						}
					}
				}
				JOINT LeftShoulder
				{
					OFFSET 5.101800 15.108002 -2.763700
					CHANNELS 3 Xrotation Yrotation Zrotation
					JOINT LeftArm
					{
						OFFSET 9.825497 2.506317 -1.597400
						CHANNELS 3 Xrotation Yrotation Zrotation
						JOINT LeftForeArm
						{
							OFFSET 21.966244 0.000000 0.000000
							CHANNELS 3 Xrotation Yrotation Zrotation
							JOINT LeftHand
							{
								OFFSET 33.879036 0.000000 0.000000
								CHANNELS 3 Xrotation Yrotation Zrotation
								JOINT LeftHandThumb1
								{
									OFFSET 6.715286 -2.359680 3.363841
									CHANNELS 3 Xrotation Yrotation Zrotation
									JOINT LeftHandThumb2
									{
										OFFSET 2.507072 -1.447464 1.447461
										CHANNELS 3 Xrotation Yrotation Zrotation
										JOINT LeftHandThumb3
										{
											OFFSET 2.898338 -1.673355 1.673357
											CHANNELS 3 Xrotation Yrotation Zrotation
											End Site
											{
												OFFSET -0.295959 3.727692 -0.131651
											}
										}
									}
								}
								JOINT LeftHandIndex1
								{
									OFFSET 14.190811 -0.254547 3.840278
									CHANNELS 3 Xrotation Yrotation Zrotation
									JOINT LeftHandIndex2
									{
										OFFSET 3.551727 0.000000 -0.000000
										CHANNELS 3 Xrotation Yrotation Zrotation
										JOINT LeftHandIndex3
										{
											OFFSET 2.894196 0.000000 0.000000
											CHANNELS 3 Xrotation Yrotation Zrotation
											End Site
											{
												OFFSET -1.000603 2.690872 0.366626
											}
										}
									}
								}
								JOINT LeftHandMiddle1
								{
									OFFSET 13.776489 0.000000 0.000000
									CHANNELS 3 Xrotation Yrotation Zrotation
									JOINT LeftHandMiddle2
									{
										OFFSET 3.438232 0.000000 0.000000
										CHANNELS 3 Xrotation Yrotation Zrotation
										JOINT LeftHandMiddle3
										{
											OFFSET 3.691551 0.000000 0.000000
											CHANNELS 3 Xrotation Yrotation Zrotation
											End Site
											{
												OFFSET -1.082298 3.499527 0.457670
											}
										}
									}
								}
								JOINT LeftHandRing1
								{
									OFFSET 13.966164 -0.268127 -3.067488
									CHANNELS 3 Xrotation Yrotation Zrotation
									JOINT LeftHandRing2
									{
										OFFSET 3.162567 0.000000 0.000000
										CHANNELS 3 Xrotation Yrotation Zrotation
										JOINT LeftHandRing3
										{
											OFFSET 3.324348 0.000000 0.000000
											CHANNELS 3 Xrotation Yrotation Zrotation
											End Site
											{
												OFFSET -0.861900 3.184998 0.405154
											}
										}
									}
								}
								JOINT LeftHandPinky1
								{
									OFFSET 13.131393 -0.168503 -5.746925
									CHANNELS 3 Xrotation Yrotation Zrotation
									JOINT LeftHandPinky2
									{
										OFFSET 2.849182 0.000000 0.000000
										CHANNELS 3 Xrotation Yrotation Zrotation
										JOINT LeftHandPinky3
										{
											OFFSET 2.805038 0.000000 0.000000
											CHANNELS 3 Xrotation Yrotation Zrotation
											End Site
											{
												OFFSET -0.882500 2.642609 0.325652
											}
										}
									}
								}
							}
							JOINT Left_Sleeve
							{
								OFFSET 6.592125 -0.646545 0.805568
								CHANNELS 3 Xrotation Yrotation Zrotation
								End Site
								{
									OFFSET -0.000179 20.275787 -0.000000
								}
							}
						}
					}
				}
				JOINT RightShoulder
				{
					OFFSET -5.731700 15.108002 -2.763700
					CHANNELS 3 Xrotation Yrotation Zrotation
					JOINT RightArm
					{
						OFFSET -9.825497 2.506317 -1.597400
						CHANNELS 3 Xrotation Yrotation Zrotation
						JOINT RightForeArm
						{
							OFFSET -21.966242 0.000000 0.000000
							CHANNELS 3 Xrotation Yrotation Zrotation
							JOINT RightHand
							{
								OFFSET -33.879032 0.000000 0.000000
								CHANNELS 3 Xrotation Yrotation Zrotation
								JOINT RightHandThumb1
								{
									OFFSET -6.715286 -2.359680 3.363841
									CHANNELS 3 Xrotation Yrotation Zrotation
									JOINT RightHandThumb2
									{
										OFFSET -2.507072 -1.447464 1.447461
										CHANNELS 3 Xrotation Yrotation Zrotation
										JOINT RightHandThumb3
										{
											OFFSET -2.898338 -1.673355 1.673357
											CHANNELS 3 Xrotation Yrotation Zrotation
											End Site
											{
												OFFSET 0.295959 3.727692 -0.131651
											}
										}
									}
								}
								JOINT RightHandIndex1
								{
									OFFSET -14.190811 -0.254547 3.840278
									CHANNELS 3 Xrotation Yrotation Zrotation
									JOINT RightHandIndex2
									{
										OFFSET -3.551727 0.000000 -0.000000
										CHANNELS 3 Xrotation Yrotation Zrotation
										JOINT RightHandIndex3
										{
											OFFSET -2.894196 0.000000 0.000000
											CHANNELS 3 Xrotation Yrotation Zrotation
											End Site
											{
												OFFSET 1.000603 2.690872 0.366626
											}
										}
									}
								}
								JOINT RightHandMiddle1
								{
									OFFSET -13.776489 0.000000 0.000000
									CHANNELS 3 Xrotation Yrotation Zrotation
									JOINT RightHandMiddle2
									{
										OFFSET -3.438232 0.000000 0.000000
										CHANNELS 3 Xrotation Yrotation Zrotation
										JOINT RightHandMiddle3
										{
											OFFSET -3.691551 0.000000 0.000000
											CHANNELS 3 Xrotation Yrotation Zrotation
											End Site
											{
												OFFSET 1.082298 3.499527 0.457670
											}
										}
									}
								}
								JOINT RightHandRing1
								{
									OFFSET -13.966164 -0.268127 -3.067488
									CHANNELS 3 Xrotation Yrotation Zrotation
									JOINT RightHandRing2
									{
										OFFSET -3.162567 0.000000 0.000000
										CHANNELS 3 Xrotation Yrotation Zrotation
										JOINT RightHandRing3
										{
											OFFSET -3.324348 0.000000 0.000000
											CHANNELS 3 Xrotation Yrotation Zrotation
											End Site
											{
												OFFSET 0.861900 3.184998 0.405154
											}
										}
									}
								}
								JOINT RightHandPinky1
								{
									OFFSET -13.131393 -0.168503 -5.746925
									CHANNELS 3 Xrotation Yrotation Zrotation
									JOINT RightHandPinky2
									{
										OFFSET -2.849182 0.000000 0.000000
										CHANNELS 3 Xrotation Yrotation Zrotation
										JOINT RightHandPinky3
										{
											OFFSET -2.805038 0.000000 0.000000
											CHANNELS 3 Xrotation Yrotation Zrotation
											End Site
											{
												OFFSET 0.882500 2.642609 0.325652
											}
										}
									}
								}
							}
							JOINT Right_Sleeve
							{
								OFFSET -6.592125 -0.646545 0.805568
								CHANNELS 3 Xrotation Yrotation Zrotation
								End Site
								{
									OFFSET 0.000179 20.275787 -0.000000
								}
							}
						}
					}
				}
				JOINT Bind_Right_JacketString
				{
					OFFSET -3.534800 11.969597 7.200700
					CHANNELS 3 Xrotation Yrotation Zrotation
					JOINT Bind_Right_JacketString1
					{
						OFFSET -0.319900 -6.102600 2.794100
						CHANNELS 3 Xrotation Yrotation Zrotation
						End Site
						{
							OFFSET 0.000000 6.719452 0.000000
						}
					}
				}
				JOINT Bind_Left_JacketString
				{
					OFFSET 2.904800 11.969597 7.200700
					CHANNELS 3 Xrotation Yrotation Zrotation
					JOINT Bind_Left_JacketString1
					{
						OFFSET 0.364800 -5.904503 3.186800
						CHANNELS 3 Xrotation Yrotation Zrotation
						End Site
						{
							OFFSET 0.000000 6.719513 0.000000
						}
					}
				}
				JOINT HairE
				{
					OFFSET 5.915200 17.612701 -11.592200
					CHANNELS 3 Xrotation Yrotation Zrotation
					JOINT HairE1
					{
						OFFSET 0.289200 -7.171898 -1.284500
						CHANNELS 3 Xrotation Yrotation Zrotation
						End Site
						{
							OFFSET 0.000000 7.291756 0.000000
						}
					}
				}
				JOINT HairF
				{
					OFFSET -0.864800 17.612701 -11.592200
					CHANNELS 3 Xrotation Yrotation Zrotation
					JOINT HairF1
					{
						OFFSET 0.000000 -14.087097 -2.127501
						CHANNELS 3 Xrotation Yrotation Zrotation
						End Site
						{
							OFFSET 0.000000 14.246841 0.000000
						}
					}
				}
				JOINT HairG
				{
					OFFSET -8.087700 17.612701 -11.592200
					CHANNELS 3 Xrotation Yrotation Zrotation
					JOINT HairG1
					{
						OFFSET -0.293600 -6.081398 -0.910100
						CHANNELS 3 Xrotation Yrotation Zrotation
						End Site
						{
							OFFSET 0.000000 6.156120 0.000000
						}
					}
				}
			}
		}
	}
	JOINT Pouch
	{
		OFFSET 0.000000 4.394501 10.847300
		CHANNELS 3 Xrotation Yrotation Zrotation
		End Site
		{
			OFFSET 0.000000 21.880577 0.000000
		}
	}
	JOINT Bag
	{
		OFFSET -13.229000 4.813004 -0.593300
		CHANNELS 3 Xrotation Yrotation Zrotation
		End Site
		{
			OFFSET 0.000000 21.880577 0.000000
		}
	}
	JOINT OccupyGuyFacialAnim_Joint
	{
		OFFSET 1.000000 -70.206398 -1.655000
		CHANNELS 3 Xrotation Yrotation Zrotation
		End Site
		{
			OFFSET 0.000000 21.880577 0.000000
		}
	}
}
MOTION
Frames: 4
Frame Time: 0.033333
0.011085 69.393166 1.288095 -0.545486 2.685888 0.172755 -0.000000 -0.000000 -0.000000 -11.482654 5.914017 2.121473 28.222208 -5.373857 -0.227075 -16.259807 -0.373283 0.609776 0.000000 -0.000000 0.000000 0.000001 0.000001 -0.000000 -17.082727 -0.087443 2.284085 27.413027 9.599608 1.304520 -7.887292 14.731460 -4.714682 -0.000000 0.000000 0.000000 0.000001 0.000000 -0.000000 3.290670 1.444594 -0.233821 1.504779 0.179304 -0.224464 1.506179 0.167723 -0.218737 -0.868672 -9.017972 -2.957312 8.152843 -28.674220 7.030379 -0.000001 -0.000003 0.000000 -0.000001 -0.000003 0.000000 -0.000001 -0.000003 0.000000 -0.000001 -0.000003 0.000000 -0.000001 -0.000001 -0.000000 -0.000001 -0.000003 0.000000 -0.000001 -0.000001 -0.000000 -0.000001 -0.000003 0.000000 -0.000001 -0.000003 0.000000 0.590284 -3.243182 -10.645879 15.509413 -22.939528 -58.147381 -0.000004 -24.724371 -0.000034 -9.564264 -16.571145 22.537618 15.696161 7.659608 11.558581 10.848861 14.177319 3.482150 -0.000002 0.000002 -0.000004 0.242549 2.812727 -7.580363 0.578539 3.274238 -25.422712 0.000003 0.000001 -0.000002 0.822776 8.680350 -13.852652 0.589455 3.394760 -26.565900 0.000001 0.000000 -0.000001 2.117944 12.069376 -20.172149 0.666678 2.510524 -22.835250 -0.000002 0.000000 -0.000002 0.382148 14.513073 -19.135926 0.258972 2.088906 -22.795773 -0.000002 0.000000 -0.000001 0.000000 -0.000001 -0.000001 0.546032 6.916321 11.075828 8.808127 -4.400278 69.918393 0.000004 19.677029 0.000010 -23.068961 15.456921 -15.609545 8.354530 -6.024063 -12.320086 6.910975 -10.783930 -6.236102 -0.000000 0.000000 -0.000006 0.364619 3.525379 4.385929 0.267451 -2.471095 16.877006 -0.000000 -0.000002 -0.000000 -0.265168 -3.235810 10.867779 0.450496 -3.079238 23.111605 0.000001 0.000001 -0.000001 0.485135 -6.894902 15.016705 0.705788 -2.581433 23.646146 0.000000 -0.000001 0.000001 0.615741 -9.595241 19.672857 0.265523 -2.109014 23.005795 -0.000000 0.000001 -0.000001 0.000000 -0.000000 0.000000 0.000000 -0.000000 -0.000000 0.000000 -0.000000 0.000000 0.000000 -0.000000 0.000000 0.000000 -0.000000 0.000000 0.000000 -0.000000 -0.000000 0.000000 -0.000000 0.000000 0.000000 -0.000000 0.000000 0.000000 -0.000000 0.000000 0.000000 -0.000000 -0.000000 0.000000 -0.000000 0.000000 -0.000000 -0.000000 -0.000000 -0.000000 -0.000000 -0.000000 -0.000000 -0.000000 -0.000000 
0.550091 69.311050 0.584560 0.362923 0.040668 0.708217 0.000000 -0.000000 0.000000 -12.666377 6.371879 0.870773 28.196781 -3.126510 -0.134819 -15.875994 -0.251818 0.785685 0.000000 0.000000 -0.000000 0.000000 0.000000 -0.000000 -19.473293 1.045562 1.472974 28.298070 9.876638 1.383707 -7.395223 16.180527 -3.805448 -0.000000 -0.000000 -0.000000 -0.000000 0.000000 -0.000000 3.052784 0.855523 -0.749928 1.537816 0.092731 -0.277825 1.538699 0.081648 -0.273506 -0.966540 -8.989319 -2.891819 7.830076 -28.181454 7.164675 -0.000001 0.000000 -0.000000 -0.000001 0.000000 -0.000000 -0.000001 0.000000 -0.000000 -0.000001 0.000000 0.000000 -0.000001 -0.000003 0.000000 -0.000001 0.000000 0.000000 -0.000001 -0.000003 0.000000 -0.000001 0.000000 -0.000000 -0.000001 0.000000 -0.000000 0.589287 -3.324748 -10.410791 15.483602 -23.329030 -57.369942 0.000003 -24.189101 0.000005 -9.424567 -16.738504 22.240187 15.696161 7.659611 11.558574 10.848862 14.177325 3.482151 0.000000 -0.000001 -0.000001 0.242546 2.812733 -7.580368 0.578540 3.274235 -25.422707 0.000003 0.000001 0.000002 0.822773 8.680353 -13.852656 0.589459 3.394754 -26.565894 0.000001 0.000000 0.000001 2.117940 12.069379 -20.172153 0.666677 2.510528 -22.835249 0.000001 0.000002 0.000001 0.382148 14.513078 -19.135938 0.258972 2.088902 -22.795777 -0.000000 0.000001 -0.000000 0.000005 -0.000000 0.000001 0.541410 6.805509 11.283152 8.267083 -5.021897 70.323027 0.000005 19.880203 0.000005 -23.239568 15.549380 -15.891999 8.354529 -6.024064 -12.320089 6.910976 -10.783930 -6.236107 0.000000 -0.000001 -0.000006 0.364617 3.525379 4.385925 0.267454 -2.471099 16.877006 -0.000002 0.000001 -0.000003 -0.265169 -3.235810 10.867774 0.450496 -3.079240 23.111601 -0.000000 0.000001 -0.000001 0.485134 -6.894904 15.016704 0.705786 -2.581430 23.646144 -0.000002 0.000000 -0.000002 0.615739 -9.595244 19.672859 0.265523 -2.109014 23.005798 -0.000001 -0.000000 -0.000001 0.000001 -0.000000 -0.000000 0.000000 0.000000 -0.000000 0.000001 0.000000 -0.000000 0.000000 0.000000 -0.000000 0.000000 0.000000 -0.000000 0.000000 0.000000 -0.000000 0.000001 0.000000 -0.000000 0.000000 0.000000 -0.000000 0.000000 0.000000 -0.000000 0.000000 0.000000 -0.000000 0.000001 0.000000 -0.000000 0.000000 -0.000000 0.000000 0.000000 -0.000000 0.000000 0.000000 -0.000000 0.000000 
1.050152 69.222000 -0.103717 1.122805 -2.353825 1.121755 -0.000000 0.000000 -0.000000 -13.902350 6.461784 -0.129935 28.463497 -0.708801 -0.029792 -15.634431 -0.182040 0.704103 -0.000000 0.000000 0.000000 -0.000000 -0.000000 -0.000000 -21.629942 1.887619 0.885533 29.104208 9.953910 1.290561 -7.602367 14.999775 -2.860427 0.000000 0.000001 -0.000000 0.000000 -0.000000 -0.000000 3.019389 0.298340 -1.075741 1.578065 0.016880 -0.272260 1.578348 0.006766 -0.269610 -1.089877 -8.975482 -2.864830 7.228270 -27.844277 7.230745 -0.000000 -0.000000 -0.000000 -0.000000 -0.000000 -0.000000 -0.000000 -0.000000 -0.000000 -0.000000 -0.000000 -0.000000 0.000000 0.000002 -0.000000 -0.000000 -0.000000 -0.000000 0.000000 0.000002 -0.000000 -0.000000 -0.000000 -0.000000 -0.000000 -0.000000 -0.000000 0.588514 -3.442172 -10.212621 15.571838 -24.198701 -56.220855 0.000004 -23.485081 -0.000013 -9.292549 -16.921109 21.671205 15.696155 7.659606 11.558576 10.848860 14.177325 3.482146 -0.000003 0.000002 0.000002 0.242542 2.812730 -7.580366 0.578536 3.274236 -25.422709 0.000002 -0.000001 -0.000002 0.822772 8.680349 -13.852651 0.589455 3.394758 -26.565888 0.000002 0.000002 -0.000003 2.117939 12.069375 -20.172149 0.666671 2.510525 -22.835250 0.000000 0.000003 -0.000001 0.382147 14.513075 -19.135933 0.258976 2.088907 -22.795773 -0.000002 0.000000 -0.000001 -0.000003 -0.000001 0.000001 0.538712 6.721201 11.424847 7.960791 -5.948075 70.873116 -0.000000 20.274148 0.000015 -23.765455 15.455357 -16.228029 8.354534 -6.024061 -12.320089 6.910974 -10.783930 -6.236102 -0.000001 0.000000 -0.000002 0.364621 3.525380 4.385926 0.267457 -2.471100 16.877012 -0.000002 -0.000000 0.000000 -0.265168 -3.235808 10.867776 0.450496 -3.079240 23.111608 0.000002 -0.000002 0.000001 0.485137 -6.894900 15.016700 0.705789 -2.581431 23.646142 -0.000001 0.000003 0.000002 0.615743 -9.595238 19.672854 0.265525 -2.109013 23.005797 -0.000003 0.000000 -0.000003 -0.000000 -0.000000 -0.000000 0.000000 -0.000000 0.000000 0.000000 0.000000 0.000000 0.000000 -0.000000 0.000000 0.000000 -0.000000 0.000000 0.000000 -0.000000 0.000000 0.000000 0.000000 -0.000000 0.000000 -0.000000 0.000000 0.000000 -0.000000 0.000000 0.000000 -0.000000 0.000000 0.000000 0.000000 -0.000000 -0.000000 0.000000 -0.000000 -0.000000 0.000000 -0.000000 -0.000000 0.000000 -0.000000 
1.498808 69.169479 -0.716428 1.625286 -4.830586 1.338638 0.000000 -0.000000 -0.000000 -14.797214 6.689941 -0.783148 28.639678 1.774174 0.089231 -15.434438 -0.137300 0.532781 0.000000 -0.000000 0.000000 -0.000001 0.000000 -0.000000 -23.198044 2.355701 0.430112 29.645087 10.007213 0.947456 -8.887912 9.429722 -2.221345 -0.000000 0.000000 0.000000 0.000001 0.000000 -0.000001 3.175309 0.026002 -1.157987 1.616195 -0.017325 -0.233189 1.616190 -0.027311 -0.231403 -1.176900 -8.958028 -2.875589 6.500525 -27.561803 7.153485 -0.000000 0.000004 -0.000001 -0.000000 0.000004 -0.000001 -0.000000 0.000004 -0.000001 -0.000000 0.000004 -0.000000 -0.000001 0.000004 -0.000001 -0.000000 0.000004 -0.000000 -0.000001 0.000004 -0.000001 -0.000000 0.000004 -0.000001 -0.000000 0.000004 -0.000001 0.588354 -3.480063 -10.123935 15.660347 -25.182566 -54.982838 0.000004 -22.812482 -0.000018 -8.879950 -16.823728 21.316607 15.696154 7.659604 11.558579 10.848862 14.177325 3.482150 0.000001 -0.000000 0.000002 0.242543 2.812733 -7.580370 0.578540 3.274235 -25.422709 -0.000003 -0.000002 -0.000000 0.822770 8.680350 -13.852652 0.589455 3.394754 -26.565889 -0.000000 0.000002 -0.000001 2.117938 12.069379 -20.172153 0.666675 2.510526 -22.835250 0.000003 0.000003 -0.000000 0.382148 14.513076 -19.135934 0.258971 2.088907 -22.795782 0.000003 0.000001 0.000001 -0.000003 0.000001 -0.000001 0.536661 6.803605 11.455434 8.083379 -6.697981 71.316519 0.000000 20.595659 -0.000008 -24.471454 15.452791 -16.386235 8.354531 -6.024062 -12.320091 6.910972 -10.783931 -6.236098 0.000002 -0.000001 -0.000000 0.364619 3.525379 4.385922 0.267452 -2.471098 16.877010 0.000001 0.000002 0.000001 -0.265167 -3.235809 10.867776 0.450493 -3.079238 23.111605 0.000003 -0.000001 0.000001 0.485140 -6.894907 15.016704 0.705791 -2.581433 23.646146 0.000001 -0.000002 -0.000002 0.615746 -9.595244 19.672859 0.265528 -2.109016 23.005795 -0.000003 0.000000 -0.000001 0.000000 0.000000 0.000001 0.000000 -0.000000 -0.000000 0.000000 -0.000000 -0.000000 0.000000 -0.000000 -0.000000 0.000000 -0.000000 -0.000000 0.000000 -0.000000 -0.000000 0.000000 -0.000000 -0.000000 0.000000 -0.000000 -0.000000 0.000000 -0.000000 -0.000000 0.000000 -0.000000 -0.000000 0.000000 -0.000000 -0.000000 0.000000 -0.000000 -0.000000 0.000000 -0.000000 -0.000000 0.000000 -0.000000 -0.000000 
